HIERARCHY
ROOT SpineBase
{
  OFFSET 0.000000 0.000000 0.000000
  CHANNELS 6 Xposition Yposition Zposition Zrotation Xrotation Yrotation
  JOINT SpineMid
  {
    OFFSET 0.000000 29.000395 0.000000
    CHANNELS 3 Zrotation Xrotation Yrotation
    JOINT SpineShoulder
    {
      OFFSET 0.069058 21.566544 -0.760530
      CHANNELS 3 Zrotation Xrotation Yrotation
      JOINT Neck
      {
        OFFSET 0.034861 7.138931 -0.545109
        CHANNELS 3 Zrotation Xrotation Yrotation
        JOINT Head
        {
          OFFSET -4.510061 13.579479 -1.414847
          CHANNELS 3 Zrotation Xrotation Yrotation
          End Site
          {
            OFFSET 0 0 0
          }
        }
      }
      JOINT ShoulderLeft
      {
        OFFSET -16.141089 -5.669728 5.121781
        CHANNELS 3 Zrotation Xrotation Yrotation
        JOINT ElbowLeft
        {
          OFFSET -1.181600 -25.409953 2.001224
          CHANNELS 3 Zrotation Xrotation Yrotation
          JOINT WristLeft
          {
            OFFSET 0.413196 -21.313737 -5.760139
            CHANNELS 3 Zrotation Xrotation Yrotation
            JOINT HandLeft
            {
              OFFSET 0.600062 -3.602058 -1.241015
              CHANNELS 3 Zrotation Xrotation Yrotation
              JOINT HandTipLeft
              {
                OFFSET 0.983296 -7.700099 -0.495792
                CHANNELS 3 Zrotation Xrotation Yrotation
                End Site
                {
                  OFFSET 0 0 0
                }
              }
              JOINT ThumbLeft
              {
                OFFSET -2.420382 -2.192681 -2.130687
                CHANNELS 3 Zrotation Xrotation Yrotation
                End Site
                {
                  OFFSET 0 0 0
                }
              }
            }
          }
        }
      }
      JOINT ShoulderRight
      {
        OFFSET 14.328504 -2.593120 -7.591766
        CHANNELS 3 Zrotation Xrotation Yrotation
        JOINT ElbowRight
        {
          OFFSET 6.207243 -25.343900 0.038636
          CHANNELS 3 Zrotation Xrotation Yrotation
          JOINT WristRight
          {
            OFFSET -1.845839 -21.335451 -5.321897
            CHANNELS 3 Zrotation Xrotation Yrotation
            JOINT HandRight
            {
              OFFSET -1.876545 -3.275308 0.159226
              CHANNELS 3 Zrotation Xrotation Yrotation
              JOINT HandTipRight
              {
                OFFSET -0.453991 -7.154717 -0.425708
                CHANNELS 3 Zrotation Xrotation Yrotation
                End Site
                {
                  OFFSET 0 0 0
                }
              }
              JOINT ThumbRight
              {
                OFFSET -3.226943 0.909104 -1.240013
                CHANNELS 3 Zrotation Xrotation Yrotation
                End Site
                {
                  OFFSET 0 0 0
                }
              }
            }
          }
        }
      }
    }
  }
  JOINT HipLeft
  {
    OFFSET -6.463519 -0.328060 -0.816033
    CHANNELS 3 Zrotation Xrotation Yrotation
    JOINT KneeLeft
    {
      OFFSET 3.601783 -28.771390 6.171205
      CHANNELS 3 Zrotation Xrotation Yrotation
      JOINT AnkleLeft
      {
        OFFSET 3.496888 -31.378196 6.399127
        CHANNELS 3 Zrotation Xrotation Yrotation
        JOINT FootLeft
        {
          OFFSET 3.598970 -7.674095 -4.956820
          CHANNELS 3 Zrotation Xrotation Yrotation
          End Site
          {
            OFFSET 0 0 0
          }
        }
      }
    }
  }
  JOINT HipRight
  {
    OFFSET 6.917139 1.735775 -5.987039
    CHANNELS 3 Zrotation Xrotation Yrotation
    JOINT KneeRight
    {
      OFFSET 6.204531 -27.242623 4.071645
      CHANNELS 3 Zrotation Xrotation Yrotation
      JOINT AnkleRight
      {
        OFFSET 3.456219 -33.999059 7.638212
        CHANNELS 3 Zrotation Xrotation Yrotation
        JOINT FootRight
        {
          OFFSET -5.881439 -6.238040 -2.180586
          CHANNELS 3 Zrotation Xrotation Yrotation
          End Site
          {
            OFFSET 0 0 0
          }
        }
      }
    }
  }
}
MOTION
Frames: 9
Frame Time: 0.033333
-23.006718 70.242189 359.636805 -0.000000 0.000000 21.129215 0.000000 0.000000 -21.129215 -0.000000 0.000000 0.000000 -0.000000 0.000000 0.000000 0.000000 0.000000 0.000000 -0.000000 0.000000 0.000000 -0.000000 0.000000 0.000000 -0.000000 0.000000 0.000000 -0.000000 0.000000 0.000000 0.000000 0.000000 0.000000 0.000000 0.000000 0.000000 -0.000000 0.000000 0.000000 -0.000000 0.000000 0.000000 -0.000000 0.000000 0.000000 -0.000000 0.000000 0.000000 0.000000 0.000000 0.000000 0.000000 0.000000 0.000000 0.000000 0.000000 -21.129215 -0.000000 0.000000 0.000000 -0.000000 0.000000 0.000000 0.000000 0.000000 0.000000 0.000000 0.000000 -21.129215 -0.000000 0.000000 0.000000 -0.000000 0.000000 0.000000 0.000000 0.000000 0.000000
-22.993462 70.204904 359.634919 0.004990 -0.054133 20.949947 0.014695 0.052339 -20.949951 -0.000000 0.000000 0.000000 -0.000000 0.000000 0.000000 0.000000 0.000000 0.000000 -0.000000 0.000000 0.000000 -0.000000 0.000000 0.000000 -0.000000 0.000000 0.000000 0.129168 1.394735 0.168070 0.000000 0.000000 0.000000 0.000000 0.000000 0.000000 -0.000000 0.000000 0.000000 -0.000000 0.000000 0.000000 -0.000000 0.000000 0.000000 -0.000000 0.000000 0.000000 0.000000 0.000000 0.000000 0.000000 0.000000 0.000000 0.014695 0.052339 -20.949951 -0.000000 0.000000 0.000000 -7.051477 9.431453 9.327358 0.000000 0.000000 0.000000 0.014695 0.052339 -20.949951 -0.000000 0.000000 0.000000 -0.000000 0.000000 0.000000 0.000000 0.000000 0.000000
-22.981779 70.170328 359.633933 0.012266 -0.102250 20.791352 0.024828 0.099945 -20.791363 -0.000000 0.000000 0.000000 -0.000000 0.000000 0.000000 0.000000 0.000000 0.000000 -0.000000 0.000000 0.000000 -0.000000 0.000000 0.000000 -0.000000 0.000000 0.000000 -0.014109 2.605636 0.333540 0.000000 0.000000 0.000000 0.000000 0.000000 0.000000 -0.000000 0.000000 0.000000 -0.000000 0.000000 0.000000 0.294014 1.039849 -0.585272 -0.754255 -1.834372 0.646620 0.000000 0.000000 0.000000 0.000000 0.000000 0.000000 0.024828 0.099945 -20.791363 -0.000000 0.000000 0.000000 -13.135602 15.526096 16.940966 0.000000 0.000000 0.000000 0.024828 0.099945 -20.791363 -0.000000 0.000000 0.000000 -0.564716 -0.442490 0.610403 0.000000 0.000000 0.000000
-22.971669 70.138461 359.633849 0.021823 -0.144387 20.653323 0.030506 0.142805 -20.653333 -0.000000 0.000000 0.000000 0.247079 0.891565 0.319966 0.000000 0.000000 0.000000 -0.000000 0.000000 0.000000 -0.000000 0.000000 0.000000 -0.876290 -0.045118 0.294467 0.428438 3.633944 0.207252 0.000000 0.000000 0.000000 0.000000 0.000000 0.000000 -0.000000 0.000000 0.000000 -0.000000 0.000000 0.000000 0.740572 1.460454 -0.813733 -1.448264 -2.607916 0.884908 0.000000 0.000000 0.000000 0.000000 0.000000 0.000000 0.030506 0.142805 -20.653333 -0.000000 0.000000 0.000000 -17.222652 18.964701 21.988882 0.000000 0.000000 0.000000 0.030506 0.142805 -20.653333 -0.000000 0.000000 0.000000 -0.915829 -0.691827 0.961663 0.000000 0.000000 0.000000
-22.963132 70.109303 359.634665 0.033658 -0.180576 20.535750 0.031825 0.180908 -20.535747 -0.000000 0.000000 0.000000 0.308843 1.091209 0.391701 0.000000 0.000000 0.000000 -0.000000 0.000000 0.000000 -0.000000 0.000000 0.000000 -1.159165 -0.253383 0.355475 -0.077488 4.560666 0.322413 0.000000 0.000000 0.000000 0.000000 0.000000 0.000000 -0.000000 0.000000 0.000000 -0.000000 0.000000 0.000000 1.348917 1.817365 -1.004664 -2.324194 -3.286034 1.069042 0.000000 0.000000 0.000000 0.000000 0.000000 0.000000 0.031825 0.180908 -20.535747 -0.000000 0.000000 0.000000 -19.040883 20.626720 24.354654 0.000000 0.000000 0.000000 0.031825 0.180908 -20.535747 -0.000000 0.000000 0.000000 -1.312918 -0.961088 1.343486 0.000000 0.000000 0.000000
-22.956168 70.082855 359.636382 0.047770 -0.210846 20.438527 0.028865 0.214254 -20.438493 -0.000000 0.000000 0.000000 0.360577 1.241669 0.446100 0.000000 0.000000 0.000000 -0.000000 0.000000 0.000000 -0.000000 0.000000 0.000000 -1.439740 -0.556712 0.397818 -0.968520 5.270379 0.469666 0.000000 0.000000 0.000000 0.000000 0.000000 0.000000 -0.000000 0.000000 0.000000 -0.000000 0.000000 0.000000 2.091622 2.114186 -1.161488 -3.361148 -3.868479 1.202448 0.000000 0.000000 0.000000 0.000000 0.000000 0.000000 0.028865 0.214254 -20.438493 -0.000000 0.000000 0.000000 -18.568227 20.968959 24.100965 0.000000 0.000000 0.000000 0.028865 0.214254 -20.438493 -0.000000 0.000000 0.000000 -1.756045 -1.251256 1.755687 0.000000 0.000000 0.000000
-22.952027 70.059817 359.639831 0.056608 -0.236928 20.375970 0.029428 0.241812 -20.375915 -0.000000 0.000000 0.000000 0.404107 1.420118 0.508832 0.000000 0.000000 0.000000 -0.000000 0.000000 0.000000 -0.000000 0.000000 0.000000 -2.019790 -1.881950 0.352258 -4.862796 5.854152 1.002709 0.000000 0.000000 0.000000 0.000000 0.000000 0.000000 -0.000000 0.000000 0.000000 -0.000000 0.000000 0.000000 3.956695 2.329247 -1.248634 -5.741181 -4.232806 1.204152 0.000000 0.000000 0.000000 0.000000 0.000000 0.000000 0.029428 0.241812 -20.375915 -0.000000 0.000000 0.000000 -10.586604 15.863966 15.033892 0.000000 0.000000 0.000000 0.029428 0.241812 -20.375915 -0.000000 0.000000 0.000000 -2.682407 -1.854644 2.600053 0.000000 0.000000 0.000000
-22.945523 70.043954 359.637899 0.081077 -0.251325 20.337306 0.011324 0.263836 -20.337155 -0.000000 0.000000 0.000000 0.446257 1.485092 0.534000 0.000000 0.000000 0.000000 -0.000000 0.000000 0.000000 -0.000000 0.000000 0.000000 -2.163818 -1.008858 0.561934 -8.067089 3.739615 0.838565 0.000000 0.000000 0.000000 0.000000 0.000000 0.000000 -0.000000 0.000000 0.000000 -0.000000 0.000000 0.000000 4.781105 2.463795 -1.314894 -7.515769 -3.489740 1.180829 0.000000 0.000000 0.000000 0.000000 0.000000 0.000000 0.011324 0.263836 -20.337155 -0.000000 0.000000 0.000000 -4.314176 10.356872 7.721681 0.000000 0.000000 0.000000 0.011324 0.263836 -20.337155 -0.000000 0.000000 0.000000 -3.374873 -2.307064 3.219932 0.000000 0.000000 0.000000
-22.941269 70.029973 359.636081 0.112515 -0.253868 20.315235 -0.017378 0.277140 -20.314944 -0.000000 0.000000 0.000000 0.468896 1.397931 0.507395 0.000000 0.000000 0.000000 -0.000000 0.000000 0.000000 -0.000000 0.000000 0.000000 -2.602349 -2.107310 0.502862 -9.704184 6.152229 1.617388 0.000000 0.000000 0.000000 0.000000 0.000000 0.000000 -0.000000 0.000000 0.000000 -0.000000 0.000000 0.000000 5.200604 3.110487 -1.717688 -6.437707 -4.268310 1.486747 0.000000 0.000000 0.000000 0.000000 0.000000 0.000000 -0.017378 0.277140 -20.314944 -0.000000 0.000000 0.000000 0.521232 4.556777 1.732385 0.000000 0.000000 0.000000 -0.017378 0.277140 -20.314944 -0.000000 0.000000 0.000000 -3.911573 -2.461951 3.517398 0.000000 0.000000 0.000000
